<svg width="255.75" height="156.25" viewBox="0 0 255.75 156.25" xmlns="http://www.w3.org/2000/svg"><g id="svgGroup" stroke-linecap="round" fill-rule="evenodd" font-size="9pt" stroke="#ffffff" stroke-width="0" fill="#00010372" style="stroke:#ffffff;stroke-width:0;fill:#00010372"><path d="M 191.5 156.25 L 122 156.25 L 112.75 0 L 165.5 0 L 165.5 99.25 L 167.75 99.25 L 205.5 0 L 255.75 0 L 191.5 156.25 Z M 106.5 24 L 107.25 35.25 L 1.25 24 L 106.5 24 Z M 112.25 120 L 113 131.25 L 7 120 L 112.25 120 Z M 113.75 144.25 L 114.5 155.5 L 8.5 144.25 L 113.75 144.25 Z M 105.25 0 L 105.75 11.25 L 0 0 L 105.25 0 Z M 108 48 L 108.5 59.25 L 2.75 48 L 108 48 Z M 109.25 72 L 110 83.25 L 4.25 72 L 109.25 72 Z M 110.75 96 L 111.5 107.25 L 5.75 96 L 110.75 96 Z" vector-effect="non-scaling-stroke"/></g></svg>